{"title":"What.Not.To.Wear s08e07 Sarah W","uid":7179790,"size":547314290,"categoryP":"video","categoryS":"tv_shows","magnet":"?xt=urn:btih:3f6eaca143763d60b632199576bff64eeaa2d2a6&amp;dn=What.Not.To.Wear+s08e07+Sarah+W&amp;tr=udp%3A%2F%2Ftracker.openbittorrent.com%3A80&amp;tr=udp%3A%2F%2Fopen.demonii.com%3A1337&amp;tr=udp%3A%2F%2Ftracker.coppersurfer.tk%3A6969&amp;tr=udp%3A%2F%2Fexodus.desync.com%3A6969","seeders":1,"leechers":0,"uploader":"April22","files":-1,"time":1334229128,"description":"WHAT NOT TO WEAR\n\nTwo fashion stylists and a team of hair and makeup advisors help revamp the look of individuals who have been nominated by their friends for makeovers due to their lamentable appearance, using a $5,000 budget.\n\nSEASON 8 EPISODE 5 - Sarah W.\n\nSarah is a 26-year-old athletic trainer from Seattle with brains, beauty and a promising future. The only problem is Sarah doesn't see it. Her low self-esteem keeps her hidden in a bland wardrobe of boring khakis and ill-fitting, super-tight tops. After a recent weight gain, Sarah's lifelong battle with body image has spiraled out of control and she's taken to using a fierce negativity as emotional armor. Can Sarah see her all-star potential? Or will her serious cynicism be too much even for Stacy and Clinton?\n\nMediaInfo:\n\nGeneral\nComplete name                    : C:MOVIESs08e07 Sarah W.avi\nFormat                           : AVI\nFormat/Info                      : Audio Video Interleave\nFile size                        : 522 MiB\nDuration                         : 42mn 48s\nOverall bit rate                 : 1 705 Kbps\nWriting application              : Lavf52.39.0\nWriting library                  : VirtualDub build 32842/release\n\nVideo\nID                               : 0\nFormat                           : MPEG-4 Visual\nFormat profile                   : Simple@L1\nFormat settings, BVOP            : No\nFormat settings, QPel            : No\nFormat settings, GMC             : No warppoints\nFormat settings, Matrix          : Default (H.263)\nCodec ID                         : DX50\nCodec ID/Hint                    : DivX 5\nDuration                         : 42mn 48s\nBit rate                         : 1 500 Kbps\nWidth                            : 720 pixels\nHeight                           : 448 pixels\nDisplay aspect ratio             : 1.607\nFrame rate                       : 25.000 fps\nColor space                      : YUV\nChroma subsampling               : 4:2:0\nBit depth                        : 8 bits\nScan type                        : Progressive\nCompression mode                 : Lossy\nBits/(Pixel*Frame)               : 0.186\nStream size                      : 459 MiB (88%)\nWriting library                  : Lavc52.36.0\n\nAudio\nID                               : 1\nFormat                           : MPEG Audio\nFormat version                   : Version 1\nFormat profile                   : Layer 3\nMode                             : Joint stereo\nMode extension                   : MS Stereo\nCodec ID                         : 55\nCodec ID/Hint                    : MP3\nDuration                         : 42mn 48s\nBit rate mode                    : Constant\nBit rate                         : 192 Kbps\nChannel(s)                       : 2 channels\nSampling rate                    : 48.0 KHz\nCompression mode                 : Lossy\nStream size                      : 58.8 MiB (11%)\nAlignment                        : Aligned on interleaves\nInterleave, duration             : 24 ms (0.60 video frame)\nInterleave, preload duration     : 504 ms","torrent":{"xt":"urn:btih:3f6eaca143763d60b632199576bff64eeaa2d2a6","amp;dn":"What.Not.To.Wear+s08e07+Sarah+W","amp;tr":["udp%3A%2F%2Ftracker.openbittorrent.com%3A80","udp%3A%2F%2Fopen.demonii.com%3A1337","udp%3A%2F%2Ftracker.coppersurfer.tk%3A6969","udp%3A%2F%2Fexodus.desync.com%3A6969"],"infoHash":"3f6eaca143763d60b632199576bff64eeaa2d2a6","infoHashBuffer":{"type":"Buffer","data":[63,110,172,161,67,118,61,96,182,50,25,149,118,191,246,78,234,162,210,166]},"announce":[],"urlList":[]}}